<svg width="43" height="44" viewBox="0 0 43 44" fill="none" xmlns="http://www.w3.org/2000/svg">
<path d="M15.0679 41.6667H9.85417C7.16667 41.6667 4.80167 40.7708 2.88458 38.8538C0.9675 36.9725 0 34.6613 0 31.9558C0 29.6267 0.69875 27.5483 2.09625 25.7208C3.45935 23.9345 5.41688 22.6952 7.61458 22.2271C8.36708 19.4858 9.85417 17.2642 12.0938 15.5621C14.3333 13.8958 16.8775 13 19.7083 13C23.2021 13 26.1762 14.2183 28.595 16.655C31.0317 19.0738 32.25 22.0479 32.25 25.5417C34.3104 25.7746 36.0304 26.6704 37.3742 28.2292C38.5208 29.5371 39.1658 31.0242 39.345 32.7083H35.7617C35.5825 31.8125 35.1883 31.0779 34.5254 30.4329C33.6654 29.555 32.6083 29.125 31.3542 29.125H28.6667V25.5417C28.6667 23.0692 27.7708 20.955 26.0508 19.1992C24.3129 17.4792 22.1988 16.5833 19.7083 16.5833C17.2358 16.5833 15.1217 17.4792 13.3658 19.1992C11.6458 20.955 10.75 23.0692 10.75 25.5417H9.85417C8.11625 25.5417 6.64708 26.1508 5.42875 27.3871C4.1925 28.6054 3.58333 30.0746 3.58333 31.8125C3.58333 33.5504 4.1925 35.0375 5.42875 36.2917C6.64708 37.4921 8.11625 38.0833 9.85417 38.0833H14.3333C14.3333 39.3733 14.6021 40.5738 15.0679 41.6667ZM39.4167 36.2917V39.875H35.8333V43.4583H32.25V39.875H28.3083C27.5917 42.025 25.6208 43.4583 23.2917 43.4583C20.2458 43.4583 17.9167 41.1292 17.9167 38.0833C17.9167 35.0375 20.2458 32.7083 23.2917 32.7083C25.6208 32.7083 27.5917 34.1417 28.3083 36.2917H39.4167ZM25.0833 38.0833C25.0833 37.1875 24.3667 36.2917 23.2917 36.2917C22.2167 36.2917 21.5 37.1875 21.5 38.0833C21.5 38.9792 22.2167 39.875 23.2917 39.875C24.3667 39.875 25.0833 38.9792 25.0833 38.0833Z" fill="#1AC35A" fill-opacity="0.51"/>
</svg>
