<svg width="641" height="368" viewBox="0 0 641 368" fill="none" xmlns="http://www.w3.org/2000/svg">
<g filter="url(#filter0_f_124_129)">
<mask id="path-1-outside-1_124_129" maskUnits="userSpaceOnUse" x="64" y="202" width="295" height="73" fill="black">
<rect fill="white" x="64" y="202" width="295" height="73"/>
<path d="M102.416 273.152C97.104 273.152 92.208 272.32 87.728 270.656C83.312 268.928 79.44 266.496 76.112 263.36C72.848 260.224 70.288 256.544 68.432 252.32C66.64 248.096 65.744 243.456 65.744 238.4C65.744 233.344 66.64 228.704 68.432 224.48C70.288 220.256 72.88 216.576 76.208 213.44C79.536 210.304 83.44 207.904 87.92 206.24C92.4 204.512 97.328 203.648 102.704 203.648C108.656 203.648 114 204.64 118.736 206.624C123.536 208.608 127.568 211.488 130.832 215.264L120.848 224.48C118.416 221.92 115.76 220.032 112.88 218.816C110 217.536 106.864 216.896 103.472 216.896C100.208 216.896 97.232 217.408 94.544 218.432C91.856 219.456 89.52 220.928 87.536 222.848C85.616 224.768 84.112 227.04 83.024 229.664C82 232.288 81.488 235.2 81.488 238.4C81.488 241.536 82 244.416 83.024 247.04C84.112 249.664 85.616 251.968 87.536 253.952C89.52 255.872 91.824 257.344 94.448 258.368C97.136 259.392 100.08 259.904 103.28 259.904C106.352 259.904 109.328 259.424 112.208 258.464C115.152 257.44 118 255.744 120.752 253.376L129.584 264.608C125.936 267.36 121.68 269.472 116.816 270.944C112.016 272.416 107.216 273.152 102.416 273.152ZM115.376 262.592V237.344H129.584V264.608L115.376 262.592ZM142.975 272V220.352H157.279V234.944L155.263 230.72C156.799 227.072 159.263 224.32 162.655 222.464C166.047 220.544 170.175 219.584 175.039 219.584V233.408C174.399 233.344 173.823 233.312 173.311 233.312C172.799 233.248 172.255 233.216 171.679 233.216C167.583 233.216 164.255 234.4 161.695 236.768C159.199 239.072 157.951 242.688 157.951 247.616V272H142.975ZM209.2 272.768C203.312 272.768 198.128 271.616 193.648 269.312C189.232 267.008 185.808 263.872 183.376 259.904C180.944 255.872 179.728 251.296 179.728 246.176C179.728 240.992 180.912 236.416 183.28 232.448C185.712 228.416 189.008 225.28 193.168 223.04C197.328 220.736 202.032 219.584 207.28 219.584C212.336 219.584 216.88 220.672 220.912 222.848C225.008 224.96 228.24 228.032 230.608 232.064C232.976 236.032 234.16 240.8 234.16 246.368C234.16 246.944 234.128 247.616 234.064 248.384C234 249.088 233.936 249.76 233.872 250.4H191.92V241.664H226L220.24 244.256C220.24 241.568 219.696 239.232 218.608 237.248C217.52 235.264 216.016 233.728 214.096 232.64C212.176 231.488 209.936 230.912 207.376 230.912C204.816 230.912 202.544 231.488 200.56 232.64C198.64 233.728 197.136 235.296 196.048 237.344C194.96 239.328 194.416 241.696 194.416 244.448V246.752C194.416 249.568 195.024 252.064 196.24 254.24C197.52 256.352 199.28 257.984 201.52 259.136C203.824 260.224 206.512 260.768 209.584 260.768C212.336 260.768 214.736 260.352 216.784 259.52C218.896 258.688 220.816 257.44 222.544 255.776L230.512 264.416C228.144 267.104 225.168 269.184 221.584 270.656C218 272.064 213.872 272.768 209.2 272.768ZM269.763 272.768C263.875 272.768 258.691 271.616 254.211 269.312C249.795 267.008 246.371 263.872 243.939 259.904C241.507 255.872 240.291 251.296 240.291 246.176C240.291 240.992 241.475 236.416 243.843 232.448C246.275 228.416 249.571 225.28 253.731 223.04C257.891 220.736 262.595 219.584 267.843 219.584C272.899 219.584 277.443 220.672 281.475 222.848C285.571 224.96 288.803 228.032 291.171 232.064C293.539 236.032 294.723 240.8 294.723 246.368C294.723 246.944 294.691 247.616 294.627 248.384C294.563 249.088 294.499 249.76 294.435 250.4H252.483V241.664H286.563L280.803 244.256C280.803 241.568 280.259 239.232 279.171 237.248C278.083 235.264 276.579 233.728 274.659 232.64C272.739 231.488 270.499 230.912 267.939 230.912C265.379 230.912 263.107 231.488 261.123 232.64C259.203 233.728 257.699 235.296 256.611 237.344C255.523 239.328 254.979 241.696 254.979 244.448V246.752C254.979 249.568 255.587 252.064 256.803 254.24C258.083 256.352 259.843 257.984 262.083 259.136C264.387 260.224 267.075 260.768 270.147 260.768C272.899 260.768 275.299 260.352 277.347 259.52C279.459 258.688 281.379 257.44 283.107 255.776L291.075 264.416C288.707 267.104 285.731 269.184 282.147 270.656C278.563 272.064 274.435 272.768 269.763 272.768ZM336.085 219.584C340.181 219.584 343.829 220.416 347.029 222.08C350.293 223.68 352.853 226.176 354.709 229.568C356.565 232.896 357.493 237.184 357.493 242.432V272H342.517V244.736C342.517 240.576 341.589 237.504 339.733 235.52C337.941 233.536 335.381 232.544 332.053 232.544C329.685 232.544 327.541 233.056 325.621 234.08C323.765 235.04 322.293 236.544 321.205 238.592C320.181 240.64 319.669 243.264 319.669 246.464V272H304.693V220.352H318.997V234.656L316.309 230.336C318.165 226.88 320.821 224.224 324.277 222.368C327.733 220.512 331.669 219.584 336.085 219.584Z"/>
</mask>
<path d="M102.416 273.152C97.104 273.152 92.208 272.32 87.728 270.656C83.312 268.928 79.44 266.496 76.112 263.36C72.848 260.224 70.288 256.544 68.432 252.32C66.64 248.096 65.744 243.456 65.744 238.4C65.744 233.344 66.64 228.704 68.432 224.48C70.288 220.256 72.88 216.576 76.208 213.44C79.536 210.304 83.44 207.904 87.92 206.24C92.4 204.512 97.328 203.648 102.704 203.648C108.656 203.648 114 204.64 118.736 206.624C123.536 208.608 127.568 211.488 130.832 215.264L120.848 224.48C118.416 221.92 115.76 220.032 112.88 218.816C110 217.536 106.864 216.896 103.472 216.896C100.208 216.896 97.232 217.408 94.544 218.432C91.856 219.456 89.52 220.928 87.536 222.848C85.616 224.768 84.112 227.04 83.024 229.664C82 232.288 81.488 235.2 81.488 238.4C81.488 241.536 82 244.416 83.024 247.04C84.112 249.664 85.616 251.968 87.536 253.952C89.52 255.872 91.824 257.344 94.448 258.368C97.136 259.392 100.08 259.904 103.28 259.904C106.352 259.904 109.328 259.424 112.208 258.464C115.152 257.44 118 255.744 120.752 253.376L129.584 264.608C125.936 267.36 121.68 269.472 116.816 270.944C112.016 272.416 107.216 273.152 102.416 273.152ZM115.376 262.592V237.344H129.584V264.608L115.376 262.592ZM142.975 272V220.352H157.279V234.944L155.263 230.72C156.799 227.072 159.263 224.32 162.655 222.464C166.047 220.544 170.175 219.584 175.039 219.584V233.408C174.399 233.344 173.823 233.312 173.311 233.312C172.799 233.248 172.255 233.216 171.679 233.216C167.583 233.216 164.255 234.4 161.695 236.768C159.199 239.072 157.951 242.688 157.951 247.616V272H142.975ZM209.2 272.768C203.312 272.768 198.128 271.616 193.648 269.312C189.232 267.008 185.808 263.872 183.376 259.904C180.944 255.872 179.728 251.296 179.728 246.176C179.728 240.992 180.912 236.416 183.28 232.448C185.712 228.416 189.008 225.28 193.168 223.04C197.328 220.736 202.032 219.584 207.28 219.584C212.336 219.584 216.88 220.672 220.912 222.848C225.008 224.96 228.24 228.032 230.608 232.064C232.976 236.032 234.16 240.8 234.16 246.368C234.16 246.944 234.128 247.616 234.064 248.384C234 249.088 233.936 249.76 233.872 250.4H191.92V241.664H226L220.24 244.256C220.24 241.568 219.696 239.232 218.608 237.248C217.52 235.264 216.016 233.728 214.096 232.64C212.176 231.488 209.936 230.912 207.376 230.912C204.816 230.912 202.544 231.488 200.56 232.64C198.64 233.728 197.136 235.296 196.048 237.344C194.96 239.328 194.416 241.696 194.416 244.448V246.752C194.416 249.568 195.024 252.064 196.24 254.24C197.52 256.352 199.28 257.984 201.52 259.136C203.824 260.224 206.512 260.768 209.584 260.768C212.336 260.768 214.736 260.352 216.784 259.52C218.896 258.688 220.816 257.44 222.544 255.776L230.512 264.416C228.144 267.104 225.168 269.184 221.584 270.656C218 272.064 213.872 272.768 209.2 272.768ZM269.763 272.768C263.875 272.768 258.691 271.616 254.211 269.312C249.795 267.008 246.371 263.872 243.939 259.904C241.507 255.872 240.291 251.296 240.291 246.176C240.291 240.992 241.475 236.416 243.843 232.448C246.275 228.416 249.571 225.28 253.731 223.04C257.891 220.736 262.595 219.584 267.843 219.584C272.899 219.584 277.443 220.672 281.475 222.848C285.571 224.96 288.803 228.032 291.171 232.064C293.539 236.032 294.723 240.8 294.723 246.368C294.723 246.944 294.691 247.616 294.627 248.384C294.563 249.088 294.499 249.76 294.435 250.4H252.483V241.664H286.563L280.803 244.256C280.803 241.568 280.259 239.232 279.171 237.248C278.083 235.264 276.579 233.728 274.659 232.64C272.739 231.488 270.499 230.912 267.939 230.912C265.379 230.912 263.107 231.488 261.123 232.64C259.203 233.728 257.699 235.296 256.611 237.344C255.523 239.328 254.979 241.696 254.979 244.448V246.752C254.979 249.568 255.587 252.064 256.803 254.24C258.083 256.352 259.843 257.984 262.083 259.136C264.387 260.224 267.075 260.768 270.147 260.768C272.899 260.768 275.299 260.352 277.347 259.52C279.459 258.688 281.379 257.44 283.107 255.776L291.075 264.416C288.707 267.104 285.731 269.184 282.147 270.656C278.563 272.064 274.435 272.768 269.763 272.768ZM336.085 219.584C340.181 219.584 343.829 220.416 347.029 222.08C350.293 223.68 352.853 226.176 354.709 229.568C356.565 232.896 357.493 237.184 357.493 242.432V272H342.517V244.736C342.517 240.576 341.589 237.504 339.733 235.52C337.941 233.536 335.381 232.544 332.053 232.544C329.685 232.544 327.541 233.056 325.621 234.08C323.765 235.04 322.293 236.544 321.205 238.592C320.181 240.64 319.669 243.264 319.669 246.464V272H304.693V220.352H318.997V234.656L316.309 230.336C318.165 226.88 320.821 224.224 324.277 222.368C327.733 220.512 331.669 219.584 336.085 219.584Z" fill="#22C55E"/>
<path d="M87.728 270.656L87.3636 271.587L87.3717 271.59L87.3798 271.593L87.728 270.656ZM76.112 263.36L75.4191 264.081L75.4262 264.088L76.112 263.36ZM68.432 252.32L67.5113 252.711L67.5165 252.722L68.432 252.32ZM68.432 224.48L67.5164 224.078L67.5114 224.089L68.432 224.48ZM76.208 213.44L76.8938 214.168L76.8938 214.168L76.208 213.44ZM87.92 206.24L88.2682 207.177L88.2799 207.173L87.92 206.24ZM118.736 206.624L118.35 207.546L118.354 207.548L118.736 206.624ZM130.832 215.264L131.51 215.999L132.221 215.342L131.589 214.61L130.832 215.264ZM120.848 224.48L120.123 225.169L120.802 225.883L121.526 225.215L120.848 224.48ZM112.88 218.816L112.474 219.73L112.482 219.734L112.491 219.737L112.88 218.816ZM87.536 222.848L86.8406 222.129L86.8347 222.135L86.8289 222.141L87.536 222.848ZM83.024 229.664L82.1003 229.281L82.0962 229.291L82.0924 229.3L83.024 229.664ZM83.024 247.04L82.0924 247.404L82.0962 247.413L82.1003 247.423L83.024 247.04ZM87.536 253.952L86.8174 254.647L86.8288 254.659L86.8406 254.671L87.536 253.952ZM94.448 258.368L94.0844 259.3L94.092 259.302L94.448 258.368ZM112.208 258.464L112.524 259.413L112.537 259.408L112.208 258.464ZM120.752 253.376L121.538 252.758L120.892 251.936L120.1 252.618L120.752 253.376ZM129.584 264.608L130.186 265.406L131.001 264.792L130.37 263.99L129.584 264.608ZM116.816 270.944L116.526 269.987L116.523 269.988L116.816 270.944ZM115.376 262.592H114.376V263.46L115.236 263.582L115.376 262.592ZM115.376 237.344V236.344H114.376V237.344H115.376ZM129.584 237.344H130.584V236.344H129.584V237.344ZM129.584 264.608L129.444 265.598L130.584 265.76V264.608H129.584ZM102.416 273.152V272.152C97.2097 272.152 92.433 271.337 88.0762 269.719L87.728 270.656L87.3798 271.593C91.983 273.303 96.9983 274.152 102.416 274.152V273.152ZM87.728 270.656L88.0924 269.725C83.7911 268.042 80.0292 265.677 76.7978 262.632L76.112 263.36L75.4262 264.088C78.8508 267.315 82.8329 269.814 87.3636 271.587L87.728 270.656ZM76.112 263.36L76.8048 262.639C73.6371 259.595 71.1519 256.024 69.3475 251.918L68.432 252.32L67.5165 252.722C69.4241 257.064 72.0589 260.853 75.4192 264.081L76.112 263.36ZM68.432 252.32L69.3526 251.929C67.6181 247.841 66.744 243.336 66.744 238.4H65.744H64.744C64.744 243.576 65.6619 248.351 67.5114 252.711L68.432 252.32ZM65.744 238.4H66.744C66.744 233.464 67.6181 228.959 69.3526 224.871L68.432 224.48L67.5114 224.089C65.6619 228.449 64.744 233.224 64.744 238.4H65.744ZM68.432 224.48L69.3475 224.882C71.1501 220.78 73.6643 217.211 76.8938 214.168L76.208 213.44L75.5222 212.712C72.0957 215.941 69.4259 219.732 67.5165 224.078L68.432 224.48ZM76.208 213.44L76.8938 214.168C80.12 211.128 83.9079 208.797 88.2682 207.177L87.92 206.24L87.5718 205.303C82.9722 207.011 78.952 209.48 75.5222 212.712L76.208 213.44ZM87.92 206.24L88.2799 207.173C92.6321 205.494 97.4364 204.648 102.704 204.648V203.648V202.648C97.2196 202.648 92.1679 203.53 87.5601 205.307L87.92 206.24ZM102.704 203.648V204.648C108.544 204.648 113.754 205.621 118.35 207.546L118.736 206.624L119.122 205.702C114.246 203.659 108.768 202.648 102.704 202.648V203.648ZM118.736 206.624L118.354 207.548C123.016 209.475 126.918 212.265 130.075 215.918L130.832 215.264L131.589 214.61C128.218 210.711 124.056 207.741 119.118 205.7L118.736 206.624ZM130.832 215.264L130.154 214.529L120.17 223.745L120.848 224.48L121.526 225.215L131.51 215.999L130.832 215.264ZM120.848 224.48L121.573 223.791C119.058 221.144 116.291 219.171 113.269 217.895L112.88 218.816L112.491 219.737C115.229 220.893 117.774 222.696 120.123 225.169L120.848 224.48ZM112.88 218.816L113.286 217.902C110.269 216.561 106.993 215.896 103.472 215.896V216.896V217.896C106.735 217.896 109.731 218.511 112.474 219.73L112.88 218.816ZM103.472 216.896V215.896C100.103 215.896 97.0039 216.425 94.188 217.498L94.544 218.432L94.9 219.366C97.4601 218.391 100.313 217.896 103.472 217.896V216.896ZM94.544 218.432L94.188 217.498C91.3788 218.568 88.926 220.111 86.8406 222.129L87.536 222.848L88.2314 223.567C90.114 221.745 92.3332 220.344 94.9 219.366L94.544 218.432ZM87.536 222.848L86.8289 222.141C84.8119 224.158 83.2362 226.541 82.1003 229.281L83.024 229.664L83.9477 230.047C84.9879 227.539 86.4201 225.378 88.2431 223.555L87.536 222.848ZM83.024 229.664L82.0924 229.3C81.0175 232.055 80.488 235.092 80.488 238.4H81.488H82.488C82.488 235.308 82.9825 232.521 83.9556 230.028L83.024 229.664ZM81.488 238.4H80.488C80.488 241.646 81.0184 244.651 82.0924 247.404L83.024 247.04L83.9556 246.676C82.9816 244.181 82.488 241.426 82.488 238.4H81.488ZM83.024 247.04L82.1003 247.423C83.235 250.16 84.8075 252.57 86.8174 254.647L87.536 253.952L88.2546 253.257C86.4245 251.366 84.989 249.168 83.9477 246.657L83.024 247.04ZM87.536 253.952L86.8406 254.671C88.9219 256.685 91.3394 258.228 94.0845 259.3L94.448 258.368L94.8115 257.436C92.3086 256.46 90.1181 255.059 88.2314 253.233L87.536 253.952ZM94.448 258.368L94.092 259.302C96.9058 260.374 99.972 260.904 103.28 260.904V259.904V258.904C100.188 258.904 97.3662 258.41 94.804 257.434L94.448 258.368ZM103.28 259.904V260.904C106.458 260.904 109.541 260.407 112.524 259.413L112.208 258.464L111.892 257.515C109.115 258.441 106.246 258.904 103.28 258.904V259.904ZM112.208 258.464L112.537 259.408C115.617 258.337 118.572 256.571 121.404 254.134L120.752 253.376L120.1 252.618C117.428 254.917 114.687 256.543 111.879 257.52L112.208 258.464ZM120.752 253.376L119.966 253.994L128.798 265.226L129.584 264.608L130.37 263.99L121.538 252.758L120.752 253.376ZM129.584 264.608L128.982 263.81C125.438 266.483 121.29 268.545 116.526 269.987L116.816 270.944L117.106 271.901C122.07 270.399 126.434 268.237 130.186 265.406L129.584 264.608ZM116.816 270.944L116.523 269.988C111.813 271.432 107.112 272.152 102.416 272.152V273.152V274.152C107.32 274.152 112.219 273.4 117.109 271.9L116.816 270.944ZM115.376 262.592H116.376V237.344H115.376H114.376V262.592H115.376ZM115.376 237.344V238.344H129.584V237.344V236.344H115.376V237.344ZM129.584 237.344H128.584V264.608H129.584H130.584V237.344H129.584ZM129.584 264.608L129.724 263.618L115.516 261.602L115.376 262.592L115.236 263.582L129.444 265.598L129.584 264.608ZM142.975 272H141.975V273H142.975V272ZM142.975 220.352V219.352H141.975V220.352H142.975ZM157.279 220.352H158.279V219.352H157.279V220.352ZM157.279 234.944L156.376 235.375L158.279 234.944H157.279ZM155.262 230.72L154.341 230.332L154.167 230.746L154.36 231.151L155.262 230.72ZM162.655 222.464L163.135 223.341L163.141 223.338L163.147 223.334L162.655 222.464ZM175.038 219.584H176.038V218.584H175.038V219.584ZM175.038 233.408L174.939 234.403L176.038 234.513V233.408H175.038ZM173.311 233.312L173.186 234.304L173.248 234.312H173.311V233.312ZM161.695 236.768L162.373 237.503L162.374 237.502L161.695 236.768ZM157.951 272V273H158.951V272H157.951ZM142.975 272H143.975V220.352H142.975H141.975V272H142.975ZM142.975 220.352V221.352H157.279V220.352V219.352H142.975V220.352ZM157.279 220.352H156.279V234.944H157.279H158.279V220.352H157.279ZM157.279 234.944L158.181 234.513L156.165 230.289L155.262 230.72L154.36 231.151L156.376 235.375L157.279 234.944ZM155.262 230.72L156.184 231.108C157.635 227.663 159.946 225.086 163.135 223.341L162.655 222.464L162.174 221.587C158.579 223.554 155.962 226.481 154.341 230.332L155.262 230.72ZM162.655 222.464L163.147 223.334C166.356 221.518 170.305 220.584 175.038 220.584V219.584V218.584C170.044 218.584 165.737 219.57 162.162 221.594L162.655 222.464ZM175.038 219.584H174.038V233.408H175.038H176.038V219.584H175.038ZM175.038 233.408L175.138 232.413C174.473 232.346 173.863 232.312 173.311 232.312V233.312V234.312C173.782 234.312 174.324 234.342 174.939 234.403L175.038 233.408ZM173.311 233.312L173.435 232.32C172.877 232.25 172.291 232.216 171.678 232.216V233.216V234.216C172.218 234.216 172.72 234.246 173.186 234.304L173.311 233.312ZM171.678 233.216V232.216C167.378 232.216 163.792 233.466 161.015 236.034L161.695 236.768L162.374 237.502C164.717 235.334 167.787 234.216 171.678 234.216V233.216ZM161.695 236.768L161.016 236.033C158.237 238.598 156.951 242.536 156.951 247.616H157.951H158.951C158.951 242.84 160.16 239.546 162.373 237.503L161.695 236.768ZM157.951 247.616H156.951V272H157.951H158.951V247.616H157.951ZM157.951 272V271H142.975V272V273H157.951V272ZM193.648 269.312L193.186 270.199L193.191 270.201L193.648 269.312ZM183.376 259.904L182.52 260.421L182.524 260.427L183.376 259.904ZM183.28 232.448L182.424 231.931L182.422 231.936L183.28 232.448ZM193.168 223.04L193.642 223.921L193.653 223.915L193.168 223.04ZM220.912 222.848L220.437 223.728L220.446 223.732L220.454 223.737L220.912 222.848ZM230.608 232.064L229.746 232.57L229.75 232.576L230.608 232.064ZM234.064 248.384L235.06 248.475L235.061 248.467L234.064 248.384ZM233.872 250.4V251.4H234.777L234.867 250.5L233.872 250.4ZM191.92 250.4H190.92V251.4H191.92V250.4ZM191.92 241.664V240.664H190.92V241.664H191.92ZM226 241.664L226.411 242.576L226 240.664V241.664ZM220.24 244.256H219.24V245.803L220.651 245.168L220.24 244.256ZM218.608 237.248L217.731 237.729V237.729L218.608 237.248ZM214.096 232.64L213.582 233.497L213.592 233.504L213.603 233.51L214.096 232.64ZM200.56 232.64L201.053 233.51L201.062 233.505L200.56 232.64ZM196.048 237.344L196.925 237.825L196.931 237.813L196.048 237.344ZM196.24 254.24L195.367 254.728L195.376 254.743L195.385 254.758L196.24 254.24ZM201.52 259.136L201.063 260.025L201.078 260.033L201.093 260.04L201.52 259.136ZM216.784 259.52L216.418 258.59L216.408 258.594L216.784 259.52ZM222.544 255.776L223.279 255.098L222.587 254.347L221.851 255.056L222.544 255.776ZM230.512 264.416L231.263 265.077L231.858 264.401L231.247 263.738L230.512 264.416ZM221.584 270.656L221.95 271.587L221.957 271.584L221.964 271.581L221.584 270.656ZM209.2 272.768V271.768C203.444 271.768 198.422 270.643 194.106 268.423L193.648 269.312L193.191 270.201C197.834 272.589 203.18 273.768 209.2 273.768V272.768ZM193.648 269.312L194.111 268.425C189.844 266.199 186.56 263.184 184.229 259.381L183.376 259.904L182.524 260.427C185.057 264.56 188.621 267.817 193.186 270.199L193.648 269.312ZM183.376 259.904L184.233 259.388C181.903 255.525 180.728 251.13 180.728 246.176H179.728H178.728C178.728 251.462 179.986 256.219 182.52 260.42L183.376 259.904ZM179.728 246.176H180.728C180.728 241.15 181.874 236.755 184.139 232.96L183.28 232.448L182.422 231.936C179.95 236.077 178.728 240.834 178.728 246.176H179.728ZM183.28 232.448L184.137 232.964C186.476 229.086 189.639 226.076 193.642 223.92L193.168 223.04L192.694 222.16C188.377 224.484 184.949 227.746 182.424 231.932L183.28 232.448ZM193.168 223.04L193.653 223.915C197.65 221.701 202.184 220.584 207.28 220.584V219.584V218.584C201.881 218.584 197.007 219.771 192.684 222.165L193.168 223.04ZM207.28 219.584V220.584C212.188 220.584 216.566 221.639 220.437 223.728L220.912 222.848L221.387 221.968C217.195 219.705 212.485 218.584 207.28 218.584V219.584ZM220.912 222.848L220.454 223.737C224.379 225.761 227.472 228.699 229.746 232.57L230.608 232.064L231.471 231.558C229.008 227.365 225.637 224.159 221.371 221.959L220.912 222.848ZM230.608 232.064L229.75 232.576C232.008 236.361 233.16 240.943 233.16 246.368H234.16H235.16C235.16 240.657 233.945 235.703 231.467 231.552L230.608 232.064ZM234.16 246.368H233.16C233.16 246.909 233.13 247.552 233.068 248.301L234.064 248.384L235.061 248.467C235.126 247.68 235.16 246.979 235.16 246.368H234.16ZM234.064 248.384L233.068 248.293C233.005 248.995 232.941 249.664 232.877 250.3L233.872 250.4L234.867 250.5C234.932 249.856 234.996 249.181 235.06 248.475L234.064 248.384ZM233.872 250.4V249.4H191.92V250.4V251.4H233.872V250.4ZM191.92 250.4H192.92V241.664H191.92H190.92V250.4H191.92ZM191.92 241.664V242.664H226V241.664V240.664H191.92V241.664ZM226 241.664L225.59 240.752L219.83 243.344L220.24 244.256L220.651 245.168L226.411 242.576L226 241.664ZM220.24 244.256H221.24C221.24 241.431 220.668 238.924 219.485 236.767L218.608 237.248L217.731 237.729C218.725 239.54 219.24 241.704 219.24 244.256H220.24ZM218.608 237.248L219.485 236.767C218.31 234.625 216.675 232.952 214.589 231.77L214.096 232.64L213.603 233.51C215.357 234.504 216.73 235.903 217.731 237.729L218.608 237.248ZM214.096 232.64L214.611 231.783C212.514 230.525 210.091 229.912 207.376 229.912V230.912V231.912C209.781 231.912 211.838 232.451 213.582 233.497L214.096 232.64ZM207.376 230.912V229.912C204.661 229.912 202.212 230.525 200.058 231.775L200.56 232.64L201.062 233.505C202.877 232.451 204.972 231.912 207.376 231.912V230.912ZM200.56 232.64L200.067 231.77C197.973 232.957 196.338 234.668 195.165 236.875L196.048 237.344L196.931 237.813C197.935 235.924 199.307 234.499 201.053 233.51L200.56 232.64ZM196.048 237.344L195.171 236.863C193.987 239.023 193.416 241.564 193.416 244.448H194.416H195.416C195.416 241.828 195.934 239.633 196.925 237.825L196.048 237.344ZM194.416 244.448H193.416V246.752H194.416H195.416V244.448H194.416ZM194.416 246.752H193.416C193.416 249.716 194.058 252.384 195.367 254.728L196.24 254.24L197.113 253.752C195.991 251.744 195.416 249.42 195.416 246.752H194.416ZM196.24 254.24L195.385 254.758C196.763 257.032 198.662 258.791 201.063 260.025L201.52 259.136L201.978 258.247C199.898 257.177 198.278 255.672 197.095 253.722L196.24 254.24ZM201.52 259.136L201.093 260.04C203.555 261.203 206.394 261.768 209.584 261.768V260.768V259.768C206.63 259.768 204.093 259.245 201.947 258.232L201.52 259.136ZM209.584 260.768V261.768C212.435 261.768 214.968 261.337 217.161 260.446L216.784 259.52L216.408 258.594C214.505 259.367 212.238 259.768 209.584 259.768V260.768ZM216.784 259.52L217.151 260.45C219.391 259.568 221.421 258.246 223.238 256.496L222.544 255.776L221.851 255.056C220.211 256.634 218.401 257.808 216.418 258.59L216.784 259.52ZM222.544 255.776L221.809 256.454L229.777 265.094L230.512 264.416L231.247 263.738L223.279 255.098L222.544 255.776ZM230.512 264.416L229.762 263.755C227.504 266.318 224.658 268.312 221.204 269.731L221.584 270.656L221.964 271.581C225.678 270.056 228.785 267.89 231.263 265.077L230.512 264.416ZM221.584 270.656L221.219 269.725C217.773 271.079 213.773 271.768 209.2 271.768V272.768V273.768C213.971 273.768 218.227 273.049 221.95 271.587L221.584 270.656ZM254.211 269.312L253.748 270.199L253.753 270.201L254.211 269.312ZM243.939 259.904L243.082 260.421L243.086 260.427L243.939 259.904ZM243.843 232.448L242.986 231.931L242.984 231.936L243.843 232.448ZM253.731 223.04L254.205 223.921L254.215 223.915L253.731 223.04ZM281.475 222.848L281 223.728L281.008 223.732L281.016 223.737L281.475 222.848ZM291.171 232.064L290.308 232.57L290.312 232.576L291.171 232.064ZM294.627 248.384L295.623 248.475L295.623 248.467L294.627 248.384ZM294.435 250.4V251.4H295.34L295.43 250.5L294.435 250.4ZM252.483 250.4H251.483V251.4H252.483V250.4ZM252.483 241.664V240.664H251.483V241.664H252.483ZM286.563 241.664L286.973 242.576L286.563 240.664V241.664ZM280.803 244.256H279.803V245.803L281.213 245.168L280.803 244.256ZM279.171 237.248L278.294 237.729V237.729L279.171 237.248ZM274.659 232.64L274.144 233.497L274.155 233.504L274.166 233.51L274.659 232.64ZM261.123 232.64L261.616 233.51L261.625 233.505L261.123 232.64ZM256.611 237.344L257.488 237.825L257.494 237.813L256.611 237.344ZM256.803 254.24L255.93 254.728L255.938 254.743L255.948 254.758L256.803 254.24ZM262.083 259.136L261.625 260.025L261.64 260.033L261.656 260.04L262.083 259.136ZM277.347 259.52L276.98 258.59L276.97 258.594L277.347 259.52ZM283.107 255.776L283.842 255.098L283.149 254.347L282.413 255.056L283.107 255.776ZM291.075 264.416L291.825 265.077L292.421 264.401L291.81 263.738L291.075 264.416ZM282.147 270.656L282.512 271.587L282.52 271.584L282.527 271.581L282.147 270.656ZM269.763 272.768V271.768C264.007 271.768 258.985 270.643 254.668 268.423L254.211 269.312L253.753 270.201C258.397 272.589 263.743 273.768 269.763 273.768V272.768ZM254.211 269.312L254.673 268.425C250.406 266.199 247.122 263.184 244.791 259.381L243.939 259.904L243.086 260.427C245.619 264.56 249.183 267.817 253.748 270.199L254.211 269.312ZM243.939 259.904L244.795 259.388C242.465 255.525 241.291 251.13 241.291 246.176H240.291H239.291C239.291 251.462 240.548 256.219 243.082 260.42L243.939 259.904ZM240.291 246.176H241.291C241.291 241.15 242.437 236.755 244.701 232.96L243.843 232.448L242.984 231.936C240.513 236.077 239.291 240.834 239.291 246.176H240.291ZM243.843 232.448L244.699 232.964C247.038 229.086 250.202 226.076 254.205 223.92L253.731 223.04L253.257 222.16C248.94 224.484 245.511 227.746 242.986 231.932L243.843 232.448ZM253.731 223.04L254.215 223.915C258.212 221.701 262.746 220.584 267.843 220.584V219.584V218.584C262.443 218.584 257.569 219.771 253.246 222.165L253.731 223.04ZM267.843 219.584V220.584C272.75 220.584 277.128 221.639 281 223.728L281.475 222.848L281.95 221.968C277.757 219.705 273.047 218.584 267.843 218.584V219.584ZM281.475 222.848L281.016 223.737C284.942 225.761 288.035 228.699 290.308 232.57L291.171 232.064L292.033 231.558C289.571 227.365 286.2 224.159 281.933 221.959L281.475 222.848ZM291.171 232.064L290.312 232.576C292.57 236.361 293.723 240.943 293.723 246.368H294.723H295.723C295.723 240.657 294.507 235.703 292.029 231.552L291.171 232.064ZM294.723 246.368H293.723C293.723 246.909 293.693 247.552 293.63 248.301L294.627 248.384L295.623 248.467C295.689 247.68 295.723 246.979 295.723 246.368H294.723ZM294.627 248.384L293.631 248.293C293.567 248.995 293.503 249.664 293.44 250.3L294.435 250.4L295.43 250.5C295.494 249.856 295.558 249.181 295.623 248.475L294.627 248.384ZM294.435 250.4V249.4H252.483V250.4V251.4H294.435V250.4ZM252.483 250.4H253.483V241.664H252.483H251.483V250.4H252.483ZM252.483 241.664V242.664H286.563V241.664V240.664H252.483V241.664ZM286.563 241.664L286.152 240.752L280.392 243.344L280.803 244.256L281.213 245.168L286.973 242.576L286.563 241.664ZM280.803 244.256H281.803C281.803 241.431 281.23 238.924 280.048 236.767L279.171 237.248L278.294 237.729C279.287 239.54 279.803 241.704 279.803 244.256H280.803ZM279.171 237.248L280.048 236.767C278.873 234.625 277.238 232.952 275.152 231.77L274.659 232.64L274.166 233.51C275.92 234.504 277.293 235.903 278.294 237.729L279.171 237.248ZM274.659 232.64L275.173 231.783C273.077 230.525 270.654 229.912 267.939 229.912V230.912V231.912C270.344 231.912 272.401 232.451 274.144 233.497L274.659 232.64ZM267.939 230.912V229.912C265.223 229.912 262.774 230.525 260.621 231.775L261.123 232.64L261.625 233.505C263.439 232.451 265.534 231.912 267.939 231.912V230.912ZM261.123 232.64L260.63 231.77C258.536 232.957 256.9 234.668 255.728 236.875L256.611 237.344L257.494 237.813C258.497 235.924 259.87 234.499 261.616 233.51L261.123 232.64ZM256.611 237.344L255.734 236.863C254.549 239.023 253.979 241.564 253.979 244.448H254.979H255.979C255.979 241.828 256.496 239.633 257.488 237.825L256.611 237.344ZM254.979 244.448H253.979V246.752H254.979H255.979V244.448H254.979ZM254.979 246.752H253.979C253.979 249.716 254.62 252.384 255.93 254.728L256.803 254.24L257.676 253.752C256.553 251.744 255.979 249.42 255.979 246.752H254.979ZM256.803 254.24L255.948 254.758C257.325 257.032 259.225 258.791 261.625 260.025L262.083 259.136L262.54 258.247C260.461 257.177 258.84 255.672 257.658 253.722L256.803 254.24ZM262.083 259.136L261.656 260.04C264.118 261.203 266.957 261.768 270.147 261.768V260.768V259.768C267.193 259.768 264.656 259.245 262.51 258.232L262.083 259.136ZM270.147 260.768V261.768C272.997 261.768 275.53 261.337 277.723 260.446L277.347 259.52L276.97 258.594C275.067 259.367 272.8 259.768 270.147 259.768V260.768ZM277.347 259.52L277.713 260.45C279.954 259.568 281.984 258.246 283.8 256.496L283.107 255.776L282.413 255.056C280.774 256.634 278.964 257.808 276.98 258.59L277.347 259.52ZM283.107 255.776L282.372 256.454L290.34 265.094L291.075 264.416L291.81 263.738L283.842 255.098L283.107 255.776ZM291.075 264.416L290.324 263.755C288.066 266.318 285.221 268.312 281.767 269.731L282.147 270.656L282.527 271.581C286.241 270.056 289.347 267.89 291.825 265.077L291.075 264.416ZM282.147 270.656L281.781 269.725C278.336 271.079 274.336 271.768 269.763 271.768V272.768V273.768C274.534 273.768 278.79 273.049 282.512 271.587L282.147 270.656ZM347.029 222.08L346.568 222.967L346.578 222.973L346.589 222.978L347.029 222.08ZM354.709 229.568L353.832 230.048L353.836 230.055L354.709 229.568ZM357.493 272V273H358.493V272H357.493ZM342.517 272H341.517V273H342.517V272ZM339.733 235.52L338.991 236.19L338.997 236.197L339.003 236.203L339.733 235.52ZM325.621 234.08L326.081 234.968L326.092 234.962L325.621 234.08ZM321.205 238.592L320.322 238.123L320.316 238.134L320.311 238.145L321.205 238.592ZM319.669 272V273H320.669V272H319.669ZM304.693 272H303.693V273H304.693V272ZM304.693 220.352V219.352H303.693V220.352H304.693ZM318.997 220.352H319.997V219.352H318.997V220.352ZM318.997 234.656L318.148 235.184L319.997 238.156V234.656H318.997ZM316.309 230.336L315.428 229.863L315.154 230.373L315.46 230.864L316.309 230.336ZM324.277 222.368L324.75 223.249V223.249L324.277 222.368ZM336.085 219.584V220.584C340.043 220.584 343.529 221.387 346.568 222.967L347.029 222.08L347.491 221.193C344.13 219.445 340.32 218.584 336.085 218.584V219.584ZM347.029 222.08L346.589 222.978C349.656 224.481 352.068 226.825 353.832 230.048L354.709 229.568L355.587 229.088C353.638 225.527 350.931 222.879 347.469 221.182L347.029 222.08ZM354.709 229.568L353.836 230.055C355.583 233.188 356.493 237.293 356.493 242.432H357.493H358.493C358.493 237.075 357.547 232.604 355.583 229.081L354.709 229.568ZM357.493 242.432H356.493V272H357.493H358.493V242.432H357.493ZM357.493 272V271H342.517V272V273H357.493V272ZM342.517 272H343.517V244.736H342.517H341.517V272H342.517ZM342.517 244.736H343.517C343.517 240.453 342.565 237.083 340.464 234.837L339.733 235.52L339.003 236.203C340.613 237.925 341.517 240.699 341.517 244.736H342.517ZM339.733 235.52L340.475 234.85C338.449 232.606 335.59 231.544 332.053 231.544V232.544V233.544C335.173 233.544 337.434 234.466 338.991 236.19L339.733 235.52ZM332.053 232.544V231.544C329.536 231.544 327.228 232.09 325.151 233.198L325.621 234.08L326.092 234.962C327.854 234.022 329.835 233.544 332.053 233.544V232.544ZM325.621 234.08L325.162 233.192C323.106 234.255 321.495 235.916 320.322 238.123L321.205 238.592L322.088 239.061C323.092 237.172 324.425 235.825 326.081 234.968L325.621 234.08ZM321.205 238.592L320.311 238.145C319.195 240.376 318.669 243.167 318.669 246.464H319.669H320.669C320.669 243.361 321.167 240.904 322.1 239.039L321.205 238.592ZM319.669 246.464H318.669V272H319.669H320.669V246.464H319.669ZM319.669 272V271H304.693V272V273H319.669V272ZM304.693 272H305.693V220.352H304.693H303.693V272H304.693ZM304.693 220.352V221.352H318.997V220.352V219.352H304.693V220.352ZM318.997 220.352H317.997V234.656H318.997H319.997V220.352H318.997ZM318.997 234.656L319.846 234.128L317.158 229.808L316.309 230.336L315.46 230.864L318.148 235.184L318.997 234.656ZM316.309 230.336L317.19 230.809C318.953 227.526 321.467 225.012 324.75 223.249L324.277 222.368L323.804 221.487C320.175 223.436 317.377 226.234 315.428 229.863L316.309 230.336ZM324.277 222.368L324.75 223.249C328.043 221.481 331.813 220.584 336.085 220.584V219.584V218.584C331.525 218.584 327.423 219.543 323.804 221.487L324.277 222.368Z" fill="black" mask="url(#path-1-outside-1_124_129)"/>
</g>
<g clip-path="url(#clip0_124_129)">
<path d="M478.4 53H528.233C543.183 53 558.133 63.6 563.117 79.5L583.05 121.9V169.6H548.167M478.4 53H119.6M478.4 53V169.6H119.6M478.4 84.8H578.067M498.333 169.6C498.333 181.26 489.363 190.8 478.4 190.8C467.437 190.8 458.467 181.26 458.467 169.6C458.467 157.94 467.437 148.4 478.4 148.4C489.363 148.4 498.333 157.94 498.333 169.6ZM179.4 169.6C179.4 181.26 170.43 190.8 159.467 190.8C148.503 190.8 139.533 181.26 139.533 169.6C139.533 157.94 148.503 148.4 159.467 148.4C170.43 148.4 179.4 157.94 179.4 169.6ZM259.133 169.6C259.133 181.26 250.163 190.8 239.2 190.8C228.237 190.8 219.267 181.26 219.267 169.6C219.267 157.94 228.237 148.4 239.2 148.4C250.163 148.4 259.133 157.94 259.133 169.6Z" stroke="#22C55E" stroke-width="8" stroke-linecap="round" stroke-linejoin="round"/>
<path d="M544.18 95.4H512.287C510.085 95.4 508.3 97.2983 508.3 99.64V122.96C508.3 125.302 510.085 127.2 512.287 127.2H544.18C546.382 127.2 548.167 125.302 548.167 122.96V99.64C548.167 97.2983 546.382 95.4 544.18 95.4Z" stroke="#22C55E" stroke-width="4"/>
<g filter="url(#filter1_f_124_129)">
<path d="M478.4 53H528.233C543.183 53 558.133 63.6 563.117 79.5L583.05 121.9V169.6H548.167M478.4 53H119.6M478.4 53V169.6H119.6M478.4 84.8H578.067M498.333 169.6C498.333 181.26 489.363 190.8 478.4 190.8C467.437 190.8 458.467 181.26 458.467 169.6C458.467 157.94 467.437 148.4 478.4 148.4C489.363 148.4 498.333 157.94 498.333 169.6ZM179.4 169.6C179.4 181.26 170.43 190.8 159.467 190.8C148.503 190.8 139.533 181.26 139.533 169.6C139.533 157.94 148.503 148.4 159.467 148.4C170.43 148.4 179.4 157.94 179.4 169.6ZM259.133 169.6C259.133 181.26 250.163 190.8 239.2 190.8C228.237 190.8 219.267 181.26 219.267 169.6C219.267 157.94 228.237 148.4 239.2 148.4C250.163 148.4 259.133 157.94 259.133 169.6Z" stroke="#22C55E" stroke-width="8" stroke-linecap="round" stroke-linejoin="round"/>
<path d="M544.18 95.4H512.287C510.085 95.4 508.3 97.2983 508.3 99.64V122.96C508.3 125.302 510.085 127.2 512.287 127.2H544.18C546.382 127.2 548.167 125.302 548.167 122.96V99.64C548.167 97.2983 546.382 95.4 544.18 95.4Z" stroke="#22C55E" stroke-width="4"/>
</g>
</g>
<path d="M200.988 319V293.8H206.82V314.248H219.456V319H200.988ZM231.429 319.288C229.365 319.288 227.529 318.856 225.921 317.992C224.337 317.128 223.077 315.952 222.141 314.464C221.229 312.952 220.773 311.236 220.773 309.316C220.773 307.372 221.229 305.656 222.141 304.168C223.077 302.656 224.337 301.48 225.921 300.64C227.529 299.776 229.365 299.344 231.429 299.344C233.469 299.344 235.293 299.776 236.901 300.64C238.509 301.48 239.769 302.644 240.681 304.132C241.593 305.62 242.049 307.348 242.049 309.316C242.049 311.236 241.593 312.952 240.681 314.464C239.769 315.952 238.509 317.128 236.901 317.992C235.293 318.856 233.469 319.288 231.429 319.288ZM231.429 314.68C232.365 314.68 233.205 314.464 233.949 314.032C234.693 313.6 235.281 312.988 235.713 312.196C236.145 311.38 236.361 310.42 236.361 309.316C236.361 308.188 236.145 307.228 235.713 306.436C235.281 305.644 234.693 305.032 233.949 304.6C233.205 304.168 232.365 303.952 231.429 303.952C230.493 303.952 229.653 304.168 228.909 304.6C228.165 305.032 227.565 305.644 227.109 306.436C226.677 307.228 226.461 308.188 226.461 309.316C226.461 310.42 226.677 311.38 227.109 312.196C227.565 312.988 228.165 313.6 228.909 314.032C229.653 314.464 230.493 314.68 231.429 314.68ZM254.911 326.272C253.087 326.272 251.323 326.044 249.619 325.588C247.939 325.156 246.535 324.496 245.407 323.608L247.639 319.576C248.455 320.248 249.487 320.776 250.735 321.16C252.007 321.568 253.255 321.772 254.479 321.772C256.471 321.772 257.911 321.328 258.799 320.44C259.711 319.552 260.167 318.232 260.167 316.48V313.564L260.527 308.704L260.455 303.808V299.632H265.783V315.76C265.783 319.36 264.847 322.012 262.975 323.716C261.103 325.42 258.415 326.272 254.911 326.272ZM254.047 318.064C252.247 318.064 250.615 317.68 249.151 316.912C247.711 316.12 246.547 315.028 245.659 313.636C244.795 312.22 244.363 310.576 244.363 308.704C244.363 306.808 244.795 305.164 245.659 303.772C246.547 302.356 247.711 301.264 249.151 300.496C250.615 299.728 252.247 299.344 254.047 299.344C255.679 299.344 257.119 299.68 258.367 300.352C259.615 301 260.587 302.02 261.283 303.412C261.979 304.78 262.327 306.544 262.327 308.704C262.327 310.84 261.979 312.604 261.283 313.996C260.587 315.364 259.615 316.384 258.367 317.056C257.119 317.728 255.679 318.064 254.047 318.064ZM255.163 313.456C256.147 313.456 257.023 313.264 257.791 312.88C258.559 312.472 259.159 311.908 259.591 311.188C260.023 310.468 260.239 309.64 260.239 308.704C260.239 307.744 260.023 306.916 259.591 306.22C259.159 305.5 258.559 304.948 257.791 304.564C257.023 304.156 256.147 303.952 255.163 303.952C254.179 303.952 253.303 304.156 252.535 304.564C251.767 304.948 251.155 305.5 250.699 306.22C250.267 306.916 250.051 307.744 250.051 308.704C250.051 309.64 250.267 310.468 250.699 311.188C251.155 311.908 251.767 312.472 252.535 312.88C253.303 313.264 254.179 313.456 255.163 313.456ZM271.01 319V299.632H276.626V319H271.01ZM273.818 296.932C272.786 296.932 271.946 296.632 271.298 296.032C270.65 295.432 270.326 294.688 270.326 293.8C270.326 292.912 270.65 292.168 271.298 291.568C271.946 290.968 272.786 290.668 273.818 290.668C274.85 290.668 275.69 290.956 276.338 291.532C276.986 292.084 277.31 292.804 277.31 293.692C277.31 294.628 276.986 295.408 276.338 296.032C275.714 296.632 274.874 296.932 273.818 296.932ZM288.354 319.288C286.698 319.288 285.102 319.096 283.566 318.712C282.054 318.304 280.854 317.8 279.966 317.2L281.838 313.168C282.726 313.72 283.77 314.176 284.97 314.536C286.194 314.872 287.394 315.04 288.57 315.04C289.866 315.04 290.778 314.884 291.306 314.572C291.858 314.26 292.134 313.828 292.134 313.276C292.134 312.82 291.918 312.484 291.486 312.268C291.078 312.028 290.526 311.848 289.83 311.728C289.134 311.608 288.366 311.488 287.526 311.368C286.71 311.248 285.882 311.092 285.042 310.9C284.202 310.684 283.434 310.372 282.738 309.964C282.042 309.556 281.478 309.004 281.046 308.308C280.638 307.612 280.434 306.712 280.434 305.608C280.434 304.384 280.782 303.304 281.478 302.368C282.198 301.432 283.23 300.7 284.574 300.172C285.918 299.62 287.526 299.344 289.398 299.344C290.718 299.344 292.062 299.488 293.43 299.776C294.798 300.064 295.938 300.484 296.85 301.036L294.978 305.032C294.042 304.48 293.094 304.108 292.134 303.916C291.198 303.7 290.286 303.592 289.398 303.592C288.15 303.592 287.238 303.76 286.662 304.096C286.086 304.432 285.798 304.864 285.798 305.392C285.798 305.872 286.002 306.232 286.41 306.472C286.842 306.712 287.406 306.904 288.102 307.048C288.798 307.192 289.554 307.324 290.37 307.444C291.21 307.54 292.05 307.696 292.89 307.912C293.73 308.128 294.486 308.44 295.158 308.848C295.854 309.232 296.418 309.772 296.85 310.468C297.282 311.14 297.498 312.028 297.498 313.132C297.498 314.332 297.138 315.4 296.418 316.336C295.698 317.248 294.654 317.968 293.286 318.496C291.942 319.024 290.298 319.288 288.354 319.288ZM308.883 319.288C306.603 319.288 304.827 318.712 303.555 317.56C302.283 316.384 301.647 314.644 301.647 312.34V295.348H307.263V312.268C307.263 313.084 307.479 313.72 307.911 314.176C308.343 314.608 308.931 314.824 309.675 314.824C310.563 314.824 311.319 314.584 311.943 314.104L313.455 318.064C312.879 318.472 312.183 318.784 311.367 319C310.575 319.192 309.747 319.288 308.883 319.288ZM298.659 304.384V300.064H312.087V304.384H298.659ZM316.608 319V299.632H322.224V319H316.608ZM319.416 296.932C318.384 296.932 317.544 296.632 316.896 296.032C316.248 295.432 315.924 294.688 315.924 293.8C315.924 292.912 316.248 292.168 316.896 291.568C317.544 290.968 318.384 290.668 319.416 290.668C320.448 290.668 321.288 290.956 321.936 291.532C322.584 292.084 322.908 292.804 322.908 293.692C322.908 294.628 322.584 295.408 321.936 296.032C321.312 296.632 320.472 296.932 319.416 296.932ZM336.796 319.288C334.708 319.288 332.848 318.868 331.216 318.028C329.584 317.164 328.3 315.976 327.364 314.464C326.452 312.952 325.996 311.236 325.996 309.316C325.996 307.372 326.452 305.656 327.364 304.168C328.3 302.656 329.584 301.48 331.216 300.64C332.848 299.776 334.708 299.344 336.796 299.344C338.836 299.344 340.612 299.776 342.124 300.64C343.636 301.48 344.752 302.692 345.472 304.276L341.116 306.616C340.612 305.704 339.976 305.032 339.208 304.6C338.464 304.168 337.648 303.952 336.76 303.952C335.8 303.952 334.936 304.168 334.168 304.6C333.4 305.032 332.788 305.644 332.332 306.436C331.9 307.228 331.684 308.188 331.684 309.316C331.684 310.444 331.9 311.404 332.332 312.196C332.788 312.988 333.4 313.6 334.168 314.032C334.936 314.464 335.8 314.68 336.76 314.68C337.648 314.68 338.464 314.476 339.208 314.068C339.976 313.636 340.612 312.952 341.116 312.016L345.472 314.392C344.752 315.952 343.636 317.164 342.124 318.028C340.612 318.868 338.836 319.288 336.796 319.288ZM355.221 319.288C353.565 319.288 351.969 319.096 350.433 318.712C348.921 318.304 347.721 317.8 346.833 317.2L348.705 313.168C349.593 313.72 350.637 314.176 351.837 314.536C353.061 314.872 354.261 315.04 355.437 315.04C356.733 315.04 357.645 314.884 358.173 314.572C358.725 314.26 359.001 313.828 359.001 313.276C359.001 312.82 358.785 312.484 358.353 312.268C357.945 312.028 357.393 311.848 356.697 311.728C356.001 311.608 355.233 311.488 354.393 311.368C353.577 311.248 352.749 311.092 351.909 310.9C351.069 310.684 350.301 310.372 349.605 309.964C348.909 309.556 348.345 309.004 347.913 308.308C347.505 307.612 347.301 306.712 347.301 305.608C347.301 304.384 347.649 303.304 348.345 302.368C349.065 301.432 350.097 300.7 351.441 300.172C352.785 299.62 354.393 299.344 356.265 299.344C357.585 299.344 358.929 299.488 360.297 299.776C361.665 300.064 362.805 300.484 363.717 301.036L361.845 305.032C360.909 304.48 359.961 304.108 359.001 303.916C358.065 303.7 357.153 303.592 356.265 303.592C355.017 303.592 354.105 303.76 353.529 304.096C352.953 304.432 352.665 304.864 352.665 305.392C352.665 305.872 352.869 306.232 353.277 306.472C353.709 306.712 354.273 306.904 354.969 307.048C355.665 307.192 356.421 307.324 357.237 307.444C358.077 307.54 358.917 307.696 359.757 307.912C360.597 308.128 361.353 308.44 362.025 308.848C362.721 309.232 363.285 309.772 363.717 310.468C364.149 311.14 364.365 312.028 364.365 313.132C364.365 314.332 364.005 315.4 363.285 316.336C362.565 317.248 361.521 317.968 360.153 318.496C358.809 319.024 357.165 319.288 355.221 319.288ZM378.422 319V293.8H389.33C391.586 293.8 393.53 294.172 395.162 294.916C396.794 295.636 398.054 296.68 398.942 298.048C399.83 299.416 400.274 301.048 400.274 302.944C400.274 304.816 399.83 306.436 398.942 307.804C398.054 309.172 396.794 310.228 395.162 310.972C393.53 311.692 391.586 312.052 389.33 312.052H381.662L384.254 309.424V319H378.422ZM384.254 310.072L381.662 307.3H389.006C390.806 307.3 392.15 306.916 393.038 306.148C393.926 305.38 394.37 304.312 394.37 302.944C394.37 301.552 393.926 300.472 393.038 299.704C392.15 298.936 390.806 298.552 389.006 298.552H381.662L384.254 295.78V310.072ZM404.393 319V292.288H410.009V319H404.393ZM427.101 319V315.22L426.741 314.392V307.624C426.741 306.424 426.369 305.488 425.625 304.816C424.905 304.144 423.789 303.808 422.277 303.808C421.245 303.808 420.225 303.976 419.217 304.312C418.233 304.624 417.393 305.056 416.697 305.608L414.681 301.684C415.737 300.94 417.009 300.364 418.497 299.956C419.985 299.548 421.497 299.344 423.033 299.344C425.985 299.344 428.277 300.04 429.909 301.432C431.541 302.824 432.357 304.996 432.357 307.948V319H427.101ZM421.197 319.288C419.685 319.288 418.389 319.036 417.309 318.532C416.229 318.004 415.401 317.296 414.825 316.408C414.249 315.52 413.961 314.524 413.961 313.42C413.961 312.268 414.237 311.26 414.789 310.396C415.365 309.532 416.265 308.86 417.489 308.38C418.713 307.876 420.309 307.624 422.277 307.624H427.425V310.9H422.889C421.569 310.9 420.657 311.116 420.153 311.548C419.673 311.98 419.433 312.52 419.433 313.168C419.433 313.888 419.709 314.464 420.261 314.896C420.837 315.304 421.617 315.508 422.601 315.508C423.537 315.508 424.377 315.292 425.121 314.86C425.865 314.404 426.405 313.744 426.741 312.88L427.605 315.472C427.197 316.72 426.453 317.668 425.373 318.316C424.293 318.964 422.901 319.288 421.197 319.288ZM445.36 319.288C443.08 319.288 441.304 318.712 440.032 317.56C438.76 316.384 438.124 314.644 438.124 312.34V295.348H443.74V312.268C443.74 313.084 443.956 313.72 444.388 314.176C444.82 314.608 445.408 314.824 446.152 314.824C447.04 314.824 447.796 314.584 448.42 314.104L449.932 318.064C449.356 318.472 448.66 318.784 447.844 319C447.052 319.192 446.224 319.288 445.36 319.288ZM435.136 304.384V300.064H448.564V304.384H435.136ZM453.768 319V299.2C453.768 297.016 454.416 295.276 455.712 293.98C457.008 292.66 458.856 292 461.256 292C462.072 292 462.852 292.084 463.596 292.252C464.364 292.42 465.012 292.684 465.54 293.044L464.064 297.112C463.752 296.896 463.404 296.728 463.02 296.608C462.636 296.488 462.228 296.428 461.796 296.428C460.98 296.428 460.344 296.668 459.888 297.148C459.456 297.604 459.24 298.3 459.24 299.236V301.036L459.384 303.448V319H453.768ZM450.78 304.384V300.064H464.208V304.384H450.78ZM475.976 319.288C473.912 319.288 472.076 318.856 470.468 317.992C468.884 317.128 467.624 315.952 466.688 314.464C465.776 312.952 465.32 311.236 465.32 309.316C465.32 307.372 465.776 305.656 466.688 304.168C467.624 302.656 468.884 301.48 470.468 300.64C472.076 299.776 473.912 299.344 475.976 299.344C478.016 299.344 479.84 299.776 481.448 300.64C483.056 301.48 484.316 302.644 485.228 304.132C486.14 305.62 486.596 307.348 486.596 309.316C486.596 311.236 486.14 312.952 485.228 314.464C484.316 315.952 483.056 317.128 481.448 317.992C479.84 318.856 478.016 319.288 475.976 319.288ZM475.976 314.68C476.912 314.68 477.752 314.464 478.496 314.032C479.24 313.6 479.828 312.988 480.26 312.196C480.692 311.38 480.908 310.42 480.908 309.316C480.908 308.188 480.692 307.228 480.26 306.436C479.828 305.644 479.24 305.032 478.496 304.6C477.752 304.168 476.912 303.952 475.976 303.952C475.04 303.952 474.2 304.168 473.456 304.6C472.712 305.032 472.112 305.644 471.656 306.436C471.224 307.228 471.008 308.188 471.008 309.316C471.008 310.42 471.224 311.38 471.656 312.196C472.112 312.988 472.712 313.6 473.456 314.032C474.2 314.464 475.04 314.68 475.976 314.68ZM490.35 319V299.632H495.714V305.104L494.958 303.52C495.534 302.152 496.458 301.12 497.73 300.424C499.002 299.704 500.55 299.344 502.374 299.344V304.528C502.134 304.504 501.918 304.492 501.726 304.492C501.534 304.468 501.33 304.456 501.114 304.456C499.578 304.456 498.33 304.9 497.37 305.788C496.434 306.652 495.966 308.008 495.966 309.856V319H490.35ZM530.552 299.344C532.088 299.344 533.444 299.656 534.62 300.28C535.82 300.88 536.756 301.816 537.428 303.088C538.124 304.336 538.472 305.944 538.472 307.912V319H532.856V308.776C532.856 307.216 532.532 306.064 531.884 305.32C531.236 304.576 530.324 304.204 529.148 304.204C528.332 304.204 527.6 304.396 526.952 304.78C526.304 305.14 525.8 305.692 525.44 306.436C525.08 307.18 524.9 308.128 524.9 309.28V319H519.284V308.776C519.284 307.216 518.96 306.064 518.312 305.32C517.688 304.576 516.788 304.204 515.612 304.204C514.796 304.204 514.064 304.396 513.416 304.78C512.768 305.14 512.264 305.692 511.904 306.436C511.544 307.18 511.364 308.128 511.364 309.28V319H505.748V299.632H511.112V304.924L510.104 303.376C510.776 302.056 511.724 301.06 512.948 300.388C514.196 299.692 515.612 299.344 517.196 299.344C518.972 299.344 520.52 299.8 521.84 300.712C523.184 301.6 524.072 302.968 524.504 304.816L522.524 304.276C523.172 302.764 524.204 301.564 525.62 300.676C527.06 299.788 528.704 299.344 530.552 299.344Z" fill="#64748B" fill-opacity="0.7"/>
<path d="M321.328 359V347.8H326.8C328.208 347.8 329.264 348.067 329.968 348.6C330.683 349.133 331.04 349.837 331.04 350.712C331.04 351.299 330.896 351.811 330.608 352.248C330.32 352.675 329.925 353.005 329.424 353.24C328.923 353.475 328.347 353.592 327.696 353.592L328 352.936C328.704 352.936 329.328 353.053 329.872 353.288C330.416 353.512 330.837 353.848 331.136 354.296C331.445 354.744 331.6 355.293 331.6 355.944C331.6 356.904 331.221 357.656 330.464 358.2C329.707 358.733 328.592 359 327.12 359H321.328ZM323.904 357.048H326.928C327.6 357.048 328.107 356.941 328.448 356.728C328.8 356.504 328.976 356.152 328.976 355.672C328.976 355.203 328.8 354.856 328.448 354.632C328.107 354.397 327.6 354.28 326.928 354.28H323.712V352.392H326.48C327.109 352.392 327.589 352.285 327.92 352.072C328.261 351.848 328.432 351.512 328.432 351.064C328.432 350.627 328.261 350.301 327.92 350.088C327.589 349.864 327.109 349.752 326.48 349.752H323.904V357.048ZM336.112 359V354.424L336.704 355.992L331.776 347.8H334.528L338.304 354.088H336.72L340.512 347.8H343.056L338.128 355.992L338.704 354.424V359H336.112ZM354.112 359.192C353.226 359.192 352.405 359.048 351.648 358.76C350.901 358.472 350.25 358.067 349.696 357.544C349.152 357.021 348.725 356.408 348.416 355.704C348.117 355 347.968 354.232 347.968 353.4C347.968 352.568 348.117 351.8 348.416 351.096C348.725 350.392 349.157 349.779 349.712 349.256C350.266 348.733 350.917 348.328 351.664 348.04C352.41 347.752 353.221 347.608 354.096 347.608C354.981 347.608 355.792 347.752 356.528 348.04C357.274 348.328 357.92 348.733 358.464 349.256C359.018 349.779 359.45 350.392 359.76 351.096C360.069 351.789 360.224 352.557 360.224 353.4C360.224 354.232 360.069 355.005 359.76 355.72C359.45 356.424 359.018 357.037 358.464 357.56C357.92 358.072 357.274 358.472 356.528 358.76C355.792 359.048 354.986 359.192 354.112 359.192ZM354.096 356.984C354.597 356.984 355.056 356.899 355.472 356.728C355.898 356.557 356.272 356.312 356.592 355.992C356.912 355.672 357.157 355.293 357.328 354.856C357.509 354.419 357.6 353.933 357.6 353.4C357.6 352.867 357.509 352.381 357.328 351.944C357.157 351.507 356.912 351.128 356.592 350.808C356.282 350.488 355.914 350.243 355.488 350.072C355.061 349.901 354.597 349.816 354.096 349.816C353.594 349.816 353.13 349.901 352.704 350.072C352.288 350.243 351.92 350.488 351.6 350.808C351.28 351.128 351.029 351.507 350.848 351.944C350.677 352.381 350.592 352.867 350.592 353.4C350.592 353.923 350.677 354.408 350.848 354.856C351.029 355.293 351.274 355.672 351.584 355.992C351.904 356.312 352.277 356.557 352.704 356.728C353.13 356.899 353.594 356.984 354.096 356.984ZM362.172 359V347.8H367.26C368.476 347.8 369.548 348.035 370.476 348.504C371.404 348.963 372.129 349.608 372.652 350.44C373.174 351.272 373.436 352.259 373.436 353.4C373.436 354.531 373.174 355.517 372.652 356.36C372.129 357.192 371.404 357.843 370.476 358.312C369.548 358.771 368.476 359 367.26 359H362.172ZM364.764 356.872H367.132C367.878 356.872 368.524 356.733 369.068 356.456C369.622 356.168 370.049 355.763 370.348 355.24C370.657 354.717 370.812 354.104 370.812 353.4C370.812 352.685 370.657 352.072 370.348 351.56C370.049 351.037 369.622 350.637 369.068 350.36C368.524 350.072 367.878 349.928 367.132 349.928H364.764V356.872ZM375.391 359V347.8H377.983V359H375.391ZM380.641 359V347.8H382.785L389.393 355.864H388.352V347.8H390.913V359H388.785L382.161 350.936H383.201V359H380.641Z" fill="#94A3B8" fill-opacity="0.5"/>
<path d="M102.416 273.152C97.104 273.152 92.208 272.32 87.728 270.656C83.312 268.928 79.44 266.496 76.112 263.36C72.848 260.224 70.288 256.544 68.432 252.32C66.64 248.096 65.744 243.456 65.744 238.4C65.744 233.344 66.64 228.704 68.432 224.48C70.288 220.256 72.88 216.576 76.208 213.44C79.536 210.304 83.44 207.904 87.92 206.24C92.4 204.512 97.328 203.648 102.704 203.648C108.656 203.648 114 204.64 118.736 206.624C123.536 208.608 127.568 211.488 130.832 215.264L120.848 224.48C118.416 221.92 115.76 220.032 112.88 218.816C110 217.536 106.864 216.896 103.472 216.896C100.208 216.896 97.232 217.408 94.544 218.432C91.856 219.456 89.52 220.928 87.536 222.848C85.616 224.768 84.112 227.04 83.024 229.664C82 232.288 81.488 235.2 81.488 238.4C81.488 241.536 82 244.416 83.024 247.04C84.112 249.664 85.616 251.968 87.536 253.952C89.52 255.872 91.824 257.344 94.448 258.368C97.136 259.392 100.08 259.904 103.28 259.904C106.352 259.904 109.328 259.424 112.208 258.464C115.152 257.44 118 255.744 120.752 253.376L129.584 264.608C125.936 267.36 121.68 269.472 116.816 270.944C112.016 272.416 107.216 273.152 102.416 273.152ZM115.376 262.592V237.344H129.584V264.608L115.376 262.592ZM142.975 272V220.352H157.279V234.944L155.263 230.72C156.799 227.072 159.263 224.32 162.655 222.464C166.047 220.544 170.175 219.584 175.039 219.584V233.408C174.399 233.344 173.823 233.312 173.311 233.312C172.799 233.248 172.255 233.216 171.679 233.216C167.583 233.216 164.255 234.4 161.695 236.768C159.199 239.072 157.951 242.688 157.951 247.616V272H142.975ZM209.2 272.768C203.312 272.768 198.128 271.616 193.648 269.312C189.232 267.008 185.808 263.872 183.376 259.904C180.944 255.872 179.728 251.296 179.728 246.176C179.728 240.992 180.912 236.416 183.28 232.448C185.712 228.416 189.008 225.28 193.168 223.04C197.328 220.736 202.032 219.584 207.28 219.584C212.336 219.584 216.88 220.672 220.912 222.848C225.008 224.96 228.24 228.032 230.608 232.064C232.976 236.032 234.16 240.8 234.16 246.368C234.16 246.944 234.128 247.616 234.064 248.384C234 249.088 233.936 249.76 233.872 250.4H191.92V241.664H226L220.24 244.256C220.24 241.568 219.696 239.232 218.608 237.248C217.52 235.264 216.016 233.728 214.096 232.64C212.176 231.488 209.936 230.912 207.376 230.912C204.816 230.912 202.544 231.488 200.56 232.64C198.64 233.728 197.136 235.296 196.048 237.344C194.96 239.328 194.416 241.696 194.416 244.448V246.752C194.416 249.568 195.024 252.064 196.24 254.24C197.52 256.352 199.28 257.984 201.52 259.136C203.824 260.224 206.512 260.768 209.584 260.768C212.336 260.768 214.736 260.352 216.784 259.52C218.896 258.688 220.816 257.44 222.544 255.776L230.512 264.416C228.144 267.104 225.168 269.184 221.584 270.656C218 272.064 213.872 272.768 209.2 272.768ZM269.763 272.768C263.875 272.768 258.691 271.616 254.211 269.312C249.795 267.008 246.371 263.872 243.939 259.904C241.507 255.872 240.291 251.296 240.291 246.176C240.291 240.992 241.475 236.416 243.843 232.448C246.275 228.416 249.571 225.28 253.731 223.04C257.891 220.736 262.595 219.584 267.843 219.584C272.899 219.584 277.443 220.672 281.475 222.848C285.571 224.96 288.803 228.032 291.171 232.064C293.539 236.032 294.723 240.8 294.723 246.368C294.723 246.944 294.691 247.616 294.627 248.384C294.563 249.088 294.499 249.76 294.435 250.4H252.483V241.664H286.563L280.803 244.256C280.803 241.568 280.259 239.232 279.171 237.248C278.083 235.264 276.579 233.728 274.659 232.64C272.739 231.488 270.499 230.912 267.939 230.912C265.379 230.912 263.107 231.488 261.123 232.64C259.203 233.728 257.699 235.296 256.611 237.344C255.523 239.328 254.979 241.696 254.979 244.448V246.752C254.979 249.568 255.587 252.064 256.803 254.24C258.083 256.352 259.843 257.984 262.083 259.136C264.387 260.224 267.075 260.768 270.147 260.768C272.899 260.768 275.299 260.352 277.347 259.52C279.459 258.688 281.379 257.44 283.107 255.776L291.075 264.416C288.707 267.104 285.731 269.184 282.147 270.656C278.563 272.064 274.435 272.768 269.763 272.768ZM336.085 219.584C340.181 219.584 343.829 220.416 347.029 222.08C350.293 223.68 352.853 226.176 354.709 229.568C356.565 232.896 357.493 237.184 357.493 242.432V272H342.517V244.736C342.517 240.576 341.589 237.504 339.733 235.52C337.941 233.536 335.381 232.544 332.053 232.544C329.685 232.544 327.541 233.056 325.621 234.08C323.765 235.04 322.293 236.544 321.205 238.592C320.181 240.64 319.669 243.264 319.669 246.464V272H304.693V220.352H318.997V234.656L316.309 230.336C318.165 226.88 320.821 224.224 324.277 222.368C327.733 220.512 331.669 219.584 336.085 219.584Z" fill="#22C55E"/>
<path d="M372.124 272V204.8H401.212C407.228 204.8 412.412 205.792 416.764 207.776C421.116 209.696 424.476 212.48 426.844 216.128C429.212 219.776 430.396 224.128 430.396 229.184C430.396 234.176 429.212 238.496 426.844 242.144C424.476 245.728 421.116 248.48 416.764 250.4C412.412 252.32 407.228 253.28 401.212 253.28H380.764L387.676 246.464V272H372.124ZM414.844 272L398.044 247.616H414.652L431.644 272H414.844ZM387.676 248.192L380.764 240.896H400.348C405.148 240.896 408.732 239.872 411.1 237.824C413.468 235.712 414.652 232.832 414.652 229.184C414.652 225.472 413.468 222.592 411.1 220.544C408.732 218.496 405.148 217.472 400.348 217.472H380.764L387.676 210.08V248.192ZM466.238 272.768C460.734 272.768 455.838 271.616 451.55 269.312C447.326 267.008 443.966 263.872 441.47 259.904C439.038 255.872 437.822 251.296 437.822 246.176C437.822 240.992 439.038 236.416 441.47 232.448C443.966 228.416 447.326 225.28 451.55 223.04C455.838 220.736 460.734 219.584 466.238 219.584C471.678 219.584 476.542 220.736 480.83 223.04C485.118 225.28 488.478 228.384 490.91 232.352C493.342 236.32 494.558 240.928 494.558 246.176C494.558 251.296 493.342 255.872 490.91 259.904C488.478 263.872 485.118 267.008 480.83 269.312C476.542 271.616 471.678 272.768 466.238 272.768ZM466.238 260.48C468.734 260.48 470.974 259.904 472.958 258.752C474.942 257.6 476.51 255.968 477.662 253.856C478.814 251.68 479.39 249.12 479.39 246.176C479.39 243.168 478.814 240.608 477.662 238.496C476.51 236.384 474.942 234.752 472.958 233.6C470.974 232.448 468.734 231.872 466.238 231.872C463.742 231.872 461.502 232.448 459.518 233.6C457.534 234.752 455.934 236.384 454.718 238.496C453.566 240.608 452.99 243.168 452.99 246.176C452.99 249.12 453.566 251.68 454.718 253.856C455.934 255.968 457.534 257.6 459.518 258.752C461.502 259.904 463.742 260.48 466.238 260.48ZM535.405 272V261.92L534.445 259.712V241.664C534.445 238.464 533.453 235.968 531.469 234.176C529.549 232.384 526.573 231.488 522.541 231.488C519.789 231.488 517.069 231.936 514.381 232.832C511.757 233.664 509.517 234.816 507.661 236.288L502.285 225.824C505.101 223.84 508.493 222.304 512.461 221.216C516.429 220.128 520.461 219.584 524.557 219.584C532.429 219.584 538.541 221.44 542.893 225.152C547.245 228.864 549.421 234.656 549.421 242.528V272H535.405ZM519.661 272.768C515.629 272.768 512.173 272.096 509.293 270.752C506.413 269.344 504.205 267.456 502.669 265.088C501.133 262.72 500.365 260.064 500.365 257.12C500.365 254.048 501.101 251.36 502.573 249.056C504.109 246.752 506.509 244.96 509.773 243.68C513.037 242.336 517.293 241.664 522.541 241.664H536.269V250.4H524.173C520.653 250.4 518.221 250.976 516.877 252.128C515.597 253.28 514.957 254.72 514.957 256.448C514.957 258.368 515.693 259.904 517.165 261.056C518.701 262.144 520.781 262.688 523.405 262.688C525.901 262.688 528.141 262.112 530.125 260.96C532.109 259.744 533.549 257.984 534.445 255.68L536.749 262.592C535.661 265.92 533.677 268.448 530.797 270.176C527.917 271.904 524.205 272.768 519.661 272.768ZM585.526 272.768C580.662 272.768 576.278 271.68 572.374 269.504C568.47 267.264 565.366 264.16 563.062 260.192C560.822 256.224 559.702 251.552 559.702 246.176C559.702 240.736 560.822 236.032 563.062 232.064C565.366 228.096 568.47 225.024 572.374 222.848C576.278 220.672 580.662 219.584 585.526 219.584C589.878 219.584 593.686 220.544 596.95 222.464C600.214 224.384 602.742 227.296 604.534 231.2C606.326 235.104 607.222 240.096 607.222 246.176C607.222 252.192 606.358 257.184 604.63 261.152C602.902 265.056 600.406 267.968 597.142 269.888C593.942 271.808 590.07 272.768 585.526 272.768ZM588.118 260.48C590.55 260.48 592.758 259.904 594.742 258.752C596.726 257.6 598.294 255.968 599.446 253.856C600.662 251.68 601.27 249.12 601.27 246.176C601.27 243.168 600.662 240.608 599.446 238.496C598.294 236.384 596.726 234.752 594.742 233.6C592.758 232.448 590.55 231.872 588.118 231.872C585.622 231.872 583.382 232.448 581.398 233.6C579.414 234.752 577.814 236.384 576.598 238.496C575.446 240.608 574.87 243.168 574.87 246.176C574.87 249.12 575.446 251.68 576.598 253.856C577.814 255.968 579.414 257.6 581.398 258.752C583.382 259.904 585.622 260.48 588.118 260.48ZM601.654 272V261.44L601.942 246.08L600.982 230.816V200.768H615.958V272H601.654Z" fill="#0B0F1A"/>
<defs>
<filter id="filter0_f_124_129" x="49.744" y="187.648" width="323.749" height="101.504" filterUnits="userSpaceOnUse" color-interpolation-filters="sRGB">
<feFlood flood-opacity="0" result="BackgroundImageFix"/>
<feBlend mode="normal" in="SourceGraphic" in2="BackgroundImageFix" result="shape"/>
<feGaussianBlur stdDeviation="7.5" result="effect1_foregroundBlur_124_129"/>
</filter>
<filter id="filter1_f_124_129" x="-15" y="-15" width="628" height="242" filterUnits="userSpaceOnUse" color-interpolation-filters="sRGB">
<feFlood flood-opacity="0" result="BackgroundImageFix"/>
<feBlend mode="normal" in="SourceGraphic" in2="BackgroundImageFix" result="shape"/>
<feGaussianBlur stdDeviation="7.5" result="effect1_foregroundBlur_124_129"/>
</filter>
<clipPath id="clip0_124_129">
<rect width="598" height="212" fill="white"/>
</clipPath>
</defs>
</svg>
