<svg width="19" height="17" viewBox="0 0 19 17" fill="none" xmlns="http://www.w3.org/2000/svg">
<path d="M10.1951 14.0419C10.1951 13.7236 10.2322 13.4146 10.2785 13.1057H1.85366V3.74449L9.26829 8.42511L16.6829 3.74449V8.50936C17.3502 8.6217 17.9712 8.85573 18.5366 9.18337V1.87225C18.5366 0.842511 17.7024 0 16.6829 0H1.85366C0.834146 0 0 0.842511 0 1.87225V13.1057C0 14.1355 0.834146 14.978 1.85366 14.978H10.2785C10.2322 14.6691 10.1951 14.3601 10.1951 14.0419ZM16.6829 1.87225L9.26829 6.55286L1.85366 1.87225H16.6829ZM14.5976 17L12.0488 14.1916L13.1239 13.1057L14.5976 14.5942L17.9249 11.2335L19 12.5534L14.5976 17Z" fill="#1AC35A" fill-opacity="0.86"/>
</svg>
