<svg width="23" height="23" viewBox="0 0 23 23" fill="none" xmlns="http://www.w3.org/2000/svg">
<path d="M8.35323 23L7.89552 19.32C7.6476 19.2242 7.41416 19.1092 7.19522 18.975C6.97629 18.8408 6.76154 18.6971 6.551 18.5437L3.14677 19.9812L0 14.5187L2.94652 12.2762C2.92745 12.1421 2.91791 12.0129 2.91791 11.8887V11.1124C2.91791 10.9875 2.92745 10.8579 2.94652 10.7237L0 8.48125L3.14677 3.01875L6.551 4.45625C6.76078 4.30292 6.9801 4.15917 7.20896 4.025C7.43781 3.89083 7.66667 3.77583 7.89552 3.68L8.35323 0H14.6468L15.1045 3.68C15.3524 3.77583 15.5862 3.89083 15.8059 4.025C16.0256 4.15917 16.24 4.30292 16.449 4.45625L19.8532 3.01875L23 8.48125L20.0535 10.7237C20.0726 10.8579 20.0821 10.9875 20.0821 11.1124V11.8875C20.0821 12.0125 20.063 12.1421 20.0249 12.2762L22.9714 14.5187L19.8246 19.9812L16.449 18.5437C16.2392 18.6971 16.0199 18.8408 15.791 18.975C15.5622 19.1092 15.3333 19.2242 15.1045 19.32L14.6468 23H8.35323ZM10.3557 20.7H12.6157L13.0162 17.6525C13.6074 17.4992 14.1559 17.2742 14.6616 16.9774C15.1674 16.6807 15.6297 16.3212 16.0485 15.8987L18.8806 17.0775L19.9963 15.1225L17.5361 13.2537C17.6314 12.9854 17.6982 12.7029 17.7363 12.4062C17.7745 12.1095 17.7935 11.8074 17.7935 11.5C17.7935 11.1926 17.7745 10.8909 17.7363 10.5949C17.6982 10.299 17.6314 10.0161 17.5361 9.74625L19.9963 7.8775L18.8806 5.9225L16.0485 7.13C15.6289 6.68917 15.1666 6.3204 14.6616 6.0237C14.1566 5.727 13.6081 5.5016 13.0162 5.3475L12.6443 2.3H10.3843L9.98383 5.3475C9.39262 5.50083 8.84451 5.72623 8.3395 6.0237C7.83449 6.32117 7.37182 6.68035 6.95149 7.10125L4.1194 5.9225L3.00373 7.8775L5.46393 9.7175C5.36857 10.005 5.30183 10.2925 5.26368 10.58C5.22554 10.8675 5.20647 11.1742 5.20647 11.5C5.20647 11.8067 5.22554 12.1037 5.26368 12.3912C5.30183 12.6787 5.36857 12.9662 5.46393 13.2537L3.00373 15.1225L4.1194 17.0775L6.95149 15.87C7.37106 16.3108 7.83373 16.68 8.3395 16.9774C8.84527 17.2749 9.39338 17.4999 9.98383 17.6525L10.3557 20.7ZM11.5572 15.525C12.6634 15.525 13.6074 15.1321 14.3893 14.3463C15.1712 13.5604 15.5622 12.6117 15.5622 11.5C15.5622 10.3883 15.1712 9.43958 14.3893 8.65375C13.6074 7.86792 12.6634 7.475 11.5572 7.475C10.432 7.475 9.48302 7.86792 8.71025 8.65375C7.93748 9.43958 7.55148 10.3883 7.55224 11.5C7.553 12.6117 7.93939 13.5604 8.71139 14.3463C9.4834 15.1321 10.432 15.525 11.5572 15.525Z" fill="#163F83" fill-opacity="0.64"/>
</svg>
