<svg width="22" height="15" viewBox="0 0 22 15" fill="none" xmlns="http://www.w3.org/2000/svg">
<path d="M21.912 0.774626C21.8004 0.469336 21.5869 0.226734 21.3182 0.0999516C21.186 0.0359313 21.044 0.00197403 20.9003 0H15.4019C15.1103 0 14.8306 0.131633 14.6243 0.36594C14.4181 0.600247 14.3022 0.918036 14.3022 1.2494C14.3022 1.58076 14.4181 1.89855 14.6243 2.13285C14.8306 2.36716 15.1103 2.49879 15.4019 2.49879H18.2501L12.1029 9.48292L8.48492 5.35991C8.38269 5.24281 8.26106 5.14986 8.12706 5.08643C7.99305 5.023 7.84932 4.99034 7.70414 4.99034C7.55897 4.99034 7.41524 5.023 7.28123 5.08643C7.14723 5.14986 7.0256 5.24281 6.92337 5.35991L0.325284 12.8563C0.222212 12.9724 0.140402 13.1106 0.0845731 13.2629C0.0287437 13.4151 0 13.5784 0 13.7434C0 13.9083 0.0287437 14.0716 0.0845731 14.2238C0.140402 14.3761 0.222212 14.5143 0.325284 14.6304C0.427513 14.7475 0.54914 14.8405 0.683146 14.9039C0.817152 14.9673 0.960886 15 1.10606 15C1.25123 15 1.39496 14.9673 1.52897 14.9039C1.66298 14.8405 1.7846 14.7475 1.88683 14.6304L7.70414 8.00863L11.3221 12.1316C11.4243 12.2487 11.546 12.3417 11.68 12.4051C11.814 12.4686 11.9577 12.5012 12.1029 12.5012C12.248 12.5012 12.3918 12.4686 12.5258 12.4051C12.6598 12.3417 12.7814 12.2487 12.8836 12.1316L19.8006 4.26044V7.49638C19.8006 7.82774 19.9165 8.14553 20.1227 8.37983C20.329 8.61414 20.6087 8.74577 20.9003 8.74577C21.192 8.74577 21.4717 8.61414 21.6779 8.37983C21.8841 8.14553 22 7.82774 22 7.49638V1.2494C21.9983 1.08613 21.9684 0.924831 21.912 0.774626Z" fill="#163F83" fill-opacity="0.64"/>
</svg>
